<svg width="28" height="27" viewBox="0 0 28 27" fill="none" xmlns="http://www.w3.org/2000/svg">
<path d="M27.3235 13.1633C27.317 16.3821 26.1357 19.4879 24.0014 21.8975C21.867 24.3071 18.9265 25.8546 15.732 26.2497C15.6607 26.2567 15.5887 26.2488 15.5206 26.2267C15.4525 26.2045 15.3897 26.1685 15.3361 26.1209C15.2826 26.0734 15.2395 26.0152 15.2095 25.9502C15.1795 25.8851 15.1633 25.8145 15.1619 25.7429V16.2037H18.2023C18.3409 16.2039 18.4781 16.1758 18.6054 16.1209C18.7326 16.0661 18.8473 15.9857 18.9423 15.8848C19.0373 15.7839 19.1106 15.6645 19.1576 15.5342C19.2046 15.4038 19.2244 15.2652 19.2158 15.1268C19.1934 14.8648 19.0724 14.621 18.8772 14.4446C18.6821 14.2683 18.4273 14.1726 18.1643 14.1767H15.1619V11.1363C15.1619 10.5987 15.3755 10.0832 15.7556 9.70306C16.1357 9.32293 16.6513 9.10938 17.1888 9.10938H19.2158C19.3544 9.10965 19.4915 9.08149 19.6188 9.02665C19.7461 8.9718 19.8608 8.89143 19.9558 8.79051C20.0508 8.68958 20.124 8.57025 20.1711 8.43989C20.2181 8.30952 20.2379 8.17089 20.2292 8.03257C20.2068 7.77051 20.0858 7.52671 19.8907 7.35037C19.6955 7.17403 19.4408 7.07828 19.1778 7.08244H17.1888C16.1137 7.08244 15.0826 7.50955 14.3223 8.26979C13.5621 9.03004 13.135 10.0612 13.135 11.1363V14.1767H10.0946C9.95597 14.1764 9.8188 14.2046 9.69152 14.2595C9.56424 14.3143 9.44956 14.3947 9.35458 14.4956C9.25959 14.5965 9.18631 14.7158 9.13927 14.8462C9.09223 14.9766 9.07244 15.1152 9.0811 15.2535C9.10352 15.5156 9.22451 15.7594 9.41966 15.9357C9.61481 16.1121 9.86958 16.2078 10.1326 16.2037H13.135V25.7429C13.1353 25.814 13.1207 25.8843 13.0922 25.9493C13.0636 26.0143 13.0217 26.0726 12.9691 26.1204C12.9165 26.1682 12.8545 26.2044 12.7871 26.2267C12.7196 26.2489 12.6482 26.2568 12.5776 26.2497C5.88867 25.4389 0.719986 19.6241 0.986021 12.6692C1.13536 9.23452 2.62132 5.99427 5.12671 3.64008C7.63211 1.28589 10.9585 0.00424604 14.3958 0.0687265C17.8331 0.133207 21.109 1.5387 23.5244 3.9852C25.9397 6.4317 27.3031 9.7254 27.3235 13.1633Z" fill="#D1E5FF"/>
</svg>
