<svg width="37" height="37" viewBox="0 0 37 37" fill="none" xmlns="http://www.w3.org/2000/svg">
<rect x="0.790833" y="0.363281" width="35.88" height="35.88" rx="4" fill="#E667E6"/>
<path fill-rule="evenodd" clip-rule="evenodd" d="M7.53717 5.77929C6.75787 6.55857 6.75787 7.81282 6.75787 10.3213V23.6246C6.75787 27.3873 6.75787 29.2686 7.92681 30.4376C8.77994 31.2907 10.0126 31.5213 12.0792 31.5835V27.6156C12.0792 26.8808 12.6748 26.2852 13.4095 26.2852C14.1442 26.2852 14.7398 26.8808 14.7398 27.6156V31.6065H22.7218V27.6156C22.7218 26.8808 23.3174 26.2852 24.0521 26.2852C24.7869 26.2852 25.3825 26.8808 25.3825 27.6156V31.5835C27.449 31.5213 28.6817 31.2907 29.5348 30.4376C30.7038 29.2686 30.7038 27.3873 30.7038 23.6246V10.3213C30.7038 7.81282 30.7038 6.55857 29.9245 5.77929C29.1452 5 27.8909 5 25.3825 5H12.0792C9.57069 5 8.31644 5 7.53717 5.77929ZM13.4095 12.982C12.6748 12.982 12.0792 13.5776 12.0792 14.3123C12.0792 15.047 12.6748 15.6426 13.4095 15.6426H24.0521C24.7869 15.6426 25.3825 15.047 25.3825 14.3123C25.3825 13.5776 24.7869 12.982 24.0521 12.982H13.4095ZM13.4095 20.9639H24.0521C24.7869 20.9639 25.3825 20.3683 25.3825 19.6336C25.3825 18.8989 24.7869 18.3033 24.0521 18.3033H13.4095C12.6748 18.3033 12.0792 18.8989 12.0792 19.6336C12.0792 20.3683 12.6748 20.9639 13.4095 20.9639Z" fill="#F5F6FB"/>
</svg>
