<svg width="27" height="26" viewBox="0 0 27 26" fill="none" xmlns="http://www.w3.org/2000/svg">
<path d="M19.0625 0.495117H7.91434C6.03283 0.495117 4.22837 1.24255 2.89793 2.57298C1.5675 3.90342 0.820068 5.70787 0.820068 7.58939V18.7375C0.820068 20.6191 1.5675 22.4235 2.89793 23.754C4.22837 25.0844 6.03283 25.8318 7.91434 25.8318H19.0625C20.944 25.8318 22.7485 25.0844 24.0789 23.754C25.4093 22.4235 26.1568 20.6191 26.1568 18.7375V7.58939C26.1568 5.70787 25.4093 3.90342 24.0789 2.57298C22.7485 1.24255 20.944 0.495117 19.0625 0.495117ZM13.4884 19.2443C12.2857 19.2443 11.1101 18.8876 10.1101 18.2195C9.11012 17.5513 8.33073 16.6016 7.87048 15.4905C7.41024 14.3794 7.28982 13.1567 7.52445 11.9772C7.75908 10.7976 8.33822 9.7141 9.18864 8.86369C10.0391 8.01327 11.1226 7.43413 12.3021 7.1995C13.4817 6.96487 14.7043 7.08529 15.8154 7.54553C16.9266 8.00578 17.8763 8.78517 18.5444 9.78515C19.2126 10.7851 19.5692 11.9608 19.5692 13.1635C19.5692 14.7762 18.9286 16.3229 17.7882 17.4632C16.6478 18.6036 15.1011 19.2443 13.4884 19.2443ZM20.076 8.09613C19.7753 8.09613 19.4814 8.00697 19.2314 7.83993C18.9814 7.67289 18.7865 7.43546 18.6715 7.15768C18.5564 6.8799 18.5263 6.57424 18.585 6.27935C18.6436 5.98446 18.7884 5.71358 19.001 5.50098C19.2136 5.28838 19.4845 5.14359 19.7794 5.08493C20.0743 5.02628 20.3799 5.05638 20.6577 5.17144C20.9355 5.2865 21.1729 5.48135 21.34 5.73135C21.507 5.98134 21.5962 6.27526 21.5962 6.57593C21.5962 6.97911 21.436 7.36578 21.1509 7.65087C20.8658 7.93596 20.4791 8.09613 20.076 8.09613Z" fill="#D1E5FF"/>
</svg>
