<svg width="26" height="26" viewBox="0 0 26 26" fill="none" xmlns="http://www.w3.org/2000/svg">
<path d="M23.4699 0.495117H2.18709C1.64952 0.495117 1.13396 0.708669 0.753832 1.08879C0.373708 1.46892 0.160156 1.98448 0.160156 2.52205V23.8049C0.160156 24.3425 0.373708 24.858 0.753832 25.2381C1.13396 25.6183 1.64952 25.8318 2.18709 25.8318H23.4699C24.0075 25.8318 24.5231 25.6183 24.9032 25.2381C25.2833 24.858 25.4969 24.3425 25.4969 23.8049V2.52205C25.4969 1.98448 25.2833 1.46892 24.9032 1.08879C24.5231 0.708669 24.0075 0.495117 23.4699 0.495117ZM8.77463 19.2443C8.77463 19.5131 8.66786 19.7708 8.4778 19.9609C8.28773 20.151 8.02995 20.2577 7.76117 20.2577C7.49238 20.2577 7.2346 20.151 7.04454 19.9609C6.85447 19.7708 6.7477 19.5131 6.7477 19.2443V11.1365C6.7477 10.8677 6.85447 10.61 7.04454 10.4199C7.2346 10.2298 7.49238 10.1231 7.76117 10.1231C8.02995 10.1231 8.28773 10.2298 8.4778 10.4199C8.66786 10.61 8.77463 10.8677 8.77463 11.1365V19.2443ZM7.76117 8.60286C7.4605 8.60286 7.16658 8.5137 6.91659 8.34666C6.66659 8.17962 6.47174 7.9422 6.35668 7.66441C6.24162 7.38663 6.21152 7.08097 6.27017 6.78608C6.32883 6.49119 6.47362 6.22032 6.68622 6.00771C6.89883 5.79511 7.1697 5.65032 7.46459 5.59167C7.75948 5.53301 8.06514 5.56311 8.34292 5.67818C8.6207 5.79324 8.85813 5.98808 9.02517 6.23808C9.19221 6.48808 9.28137 6.78199 9.28137 7.08266C9.28137 7.48584 9.12121 7.87251 8.83611 8.1576C8.55102 8.4427 8.16435 8.60286 7.76117 8.60286ZM19.9228 19.2443C19.9228 19.5131 19.816 19.7708 19.6259 19.9609C19.4359 20.151 19.1781 20.2577 18.9093 20.2577C18.6405 20.2577 18.3827 20.151 18.1927 19.9609C18.0026 19.7708 17.8958 19.5131 17.8958 19.2443V14.6837C17.8958 14.0117 17.6289 13.3672 17.1538 12.8921C16.6786 12.4169 16.0341 12.15 15.3622 12.15C14.6902 12.15 14.0458 12.4169 13.5706 12.8921C13.0954 13.3672 12.8285 14.0117 12.8285 14.6837V19.2443C12.8285 19.5131 12.7217 19.7708 12.5317 19.9609C12.3416 20.151 12.0838 20.2577 11.815 20.2577C11.5463 20.2577 11.2885 20.151 11.0984 19.9609C10.9083 19.7708 10.8016 19.5131 10.8016 19.2443V11.1365C10.8009 10.8871 10.8922 10.6462 11.058 10.4599C11.2238 10.2736 11.4525 10.155 11.7003 10.1267C11.9481 10.0985 12.1977 10.1626 12.4011 10.3069C12.6046 10.4511 12.7478 10.6653 12.8032 10.9085C13.4889 10.4436 14.2884 10.1743 15.1156 10.1296C15.9429 10.0848 16.7667 10.2662 17.4987 10.6543C18.2306 11.0424 18.843 11.6226 19.2701 12.3325C19.6972 13.0424 19.9228 13.8552 19.9228 14.6837V19.2443Z" fill="#D1E5FF"/>
</svg>
