<svg width="27" height="21" viewBox="0 0 27 21" fill="none" xmlns="http://www.w3.org/2000/svg">
<path d="M25.899 0.596191H1.57582C1.30703 0.596191 1.04925 0.702967 0.859185 0.89303C0.669123 1.08309 0.562347 1.34087 0.562347 1.60966V18.8386C0.562347 19.3762 0.775899 19.8918 1.15602 20.2719C1.53615 20.652 2.05171 20.8656 2.58928 20.8656H24.8856C25.4232 20.8656 25.9387 20.652 26.3188 20.2719C26.699 19.8918 26.9125 19.3762 26.9125 18.8386V1.60966C26.9125 1.34087 26.8057 1.08309 26.6157 0.89303C26.4256 0.702967 26.1678 0.596191 25.899 0.596191ZM10.0256 10.7309L2.58928 17.5464V3.9153L10.0256 10.7309ZM11.5205 12.1117L13.0533 13.5052C13.2402 13.6762 13.4842 13.771 13.7374 13.771C13.9906 13.771 14.2347 13.6762 14.4215 13.5052L15.9544 12.1117L23.2894 18.8386H4.1855L11.5205 12.1117ZM17.4493 10.7309L24.8856 3.9153V17.5464L17.4493 10.7309Z" fill="#D1E5FF"/>
</svg>
