<svg width="26" height="26" viewBox="0 0 26 26" fill="none" xmlns="http://www.w3.org/2000/svg">
<path d="M24.6322 17.0975L18.6907 14.5639C18.3842 14.4265 18.0476 14.3695 17.7129 14.3983C17.3782 14.4271 17.0564 14.5408 16.7778 14.7286L13.598 16.8442C11.6601 15.9029 10.091 14.3428 9.13879 12.4103L11.2417 9.19249C11.4283 8.91363 11.5422 8.5926 11.5732 8.25854C11.6041 7.92448 11.5512 7.58797 11.4191 7.27957L8.87275 1.33812C8.69507 0.936927 8.39421 0.602766 8.01381 0.384092C7.63341 0.165418 7.19324 0.0736005 6.75714 0.121954C5.0464 0.346063 3.47524 1.18378 2.33579 2.47935C1.19633 3.77493 0.56612 5.4402 0.562317 7.16556C0.562317 17.2242 8.74607 25.408 18.8047 25.408C20.5301 25.4042 22.1954 24.774 23.4909 23.6345C24.7865 22.4951 25.6242 20.9239 25.8483 19.2132C25.8967 18.7771 25.8049 18.3369 25.5862 17.9565C25.3675 17.5761 25.0334 17.2752 24.6322 17.0975Z" fill="#D1E5FF"/>
</svg>
