<svg width="37" height="37" viewBox="0 0 37 37" fill="none" xmlns="http://www.w3.org/2000/svg">
<rect x="0.770569" y="0.280762" width="35.8787" height="35.8787" rx="4" fill="#3D99F5"/>
<path d="M24.5406 13.244L12.5524 13.1111C12.4382 13.7154 12.0651 14.3333 11.4318 14.9527C9.99912 16.3539 7.8087 17.2158 7.78669 17.2239C7.69231 17.2609 7.60791 17.3156 7.53745 17.3845C7.44984 17.4702 7.38392 17.577 7.34761 17.6972C7.28178 17.9139 7.31858 18.149 7.44807 18.3347L17.7254 33.0661C17.7861 33.1535 17.8662 33.2222 17.9552 33.2751L18.0868 21.3961C17.7446 21.3229 17.4192 21.1533 17.1565 20.8846C16.4449 20.1571 16.4579 18.9863 17.1854 18.2747C17.913 17.5632 19.0838 17.5762 19.7953 18.3037C20.5069 19.0312 20.4939 20.202 19.7664 20.9136C19.4977 21.1763 19.1689 21.3384 18.8249 21.4043L18.6935 33.2836C18.7484 33.2521 18.8013 33.2164 18.8472 33.1715C18.8759 33.1434 18.9027 33.1126 18.927 33.0795L29.529 18.5799C29.6626 18.3971 29.7048 18.1626 29.6438 17.9445C29.5826 17.7261 29.424 17.5482 29.2146 17.4618C27.9734 16.9492 24.8736 15.2458 24.5406 13.244Z" fill="white"/>
<path d="M12.5975 12.3731L24.5134 12.5054L24.5226 11.6775L12.6067 11.5452L12.5975 12.3731Z" fill="white"/>
<path d="M19.2502 20.386C19.6874 19.9583 19.6952 19.2572 19.2676 18.82C18.84 18.3828 18.1389 18.375 17.7016 18.8026C17.2644 19.2302 17.2566 19.9313 17.6843 20.3686C18.1119 20.8058 18.813 20.8136 19.2502 20.386Z" fill="white"/>
<path d="M23.8489 5.86442L13.4092 5.7485C13.2051 5.74623 13.0199 5.82666 12.8848 5.9588C12.7497 6.09094 12.6652 6.27429 12.6629 6.47838L12.6149 10.8072L24.5307 10.9395L24.5787 6.6107C24.5833 6.20303 24.2565 5.86895 23.8489 5.86442Z" fill="white"/>
</svg>
