<svg width="37" height="37" viewBox="0 0 37 37" fill="none" xmlns="http://www.w3.org/2000/svg">
<rect x="0.790855" y="0.363281" width="35.88" height="35.88" rx="4" fill="#0FC0C5"/>
<path d="M13.0298 21.6781C13.0257 21.6362 13.0126 21.5976 13.0126 21.5557V21.1967C13.0126 21.0259 13.0405 20.8575 13.0964 20.6973C13.0964 20.6973 13.9911 19.4995 14.4142 18.0922C13.9508 17.1145 13.5302 15.8979 13.5302 14.6919C13.5302 14.4117 13.5507 14.1406 13.5795 13.8736C12.9757 13.241 12.1599 12.8828 11.2586 12.8828C9.39785 12.8828 7.88792 14.401 7.88792 16.7604C7.88792 18.6483 9.4242 20.6972 9.4242 20.6972C9.4784 20.8574 9.50637 21.0258 9.50637 21.1967V21.5557C9.50637 22.0034 9.24512 22.4109 8.83764 22.5974L6.3985 23.5939C5.8316 23.8552 5.42822 24.376 5.31571 24.9889L5.2738 25.5253C5.25246 25.8047 5.34773 26.0799 5.53832 26.2844C5.72808 26.4907 5.99512 26.6065 6.27525 26.6065H10.2621L10.4256 24.5058L10.4363 24.4492C10.6359 23.3475 11.3638 22.4109 12.3808 21.9427L13.0298 21.6781Z" fill="#F5F6FB"/>
<path d="M32.146 24.9889C32.0343 24.376 31.6309 23.8551 31.0641 23.5939L28.6233 22.5974C28.2158 22.4109 27.9562 22.0034 27.9562 21.5557V21.1967C27.9562 21.0258 27.9833 20.8574 28.0391 20.6972C28.0391 20.6972 29.5746 18.6483 29.5746 16.7604C29.5746 14.401 28.0654 12.8828 26.2014 12.8828C25.3018 12.8828 24.486 13.241 23.8805 13.8752C23.9101 14.1414 23.9306 14.4117 23.9306 14.6918C23.9306 15.897 23.5109 17.1137 23.0483 18.0913C23.4706 19.4986 24.3669 20.6972 24.3669 20.6972C24.4211 20.8574 24.4499 21.0258 24.4499 21.1967V21.5557C24.4499 21.5976 24.4359 21.6362 24.4318 21.6781L25.0364 21.9246C26.0962 22.4093 26.8241 23.3458 27.0262 24.4475L27.0361 24.505L27.1987 26.6065H31.1872C31.4674 26.6065 31.7344 26.4907 31.9233 26.2844C32.1139 26.0799 32.2092 25.8047 32.1878 25.5253L32.146 24.9889Z" fill="#F5F6FB"/>
<path d="M24.6126 22.9621L21.66 21.7553C21.1671 21.5285 20.8525 21.0356 20.8525 20.495V20.0596C20.8525 19.8543 20.8853 19.6497 20.9535 19.455C20.9535 19.455 22.8102 16.9772 22.8102 14.6917C22.8102 11.8361 20.984 10 18.7305 10C16.4778 10 14.6508 11.8361 14.6508 14.6917C14.6508 16.9772 16.5091 19.455 16.5091 19.455C16.5756 19.6497 16.6101 19.8543 16.6101 20.0596V20.495C16.6101 21.0356 16.293 21.5285 15.8009 21.7553L12.8483 22.9621C12.1623 23.2767 11.6735 23.9076 11.5388 24.6503L11.3868 26.6064H18.7305H26.0741L25.9238 24.6503C25.7874 23.9077 25.2986 23.2768 24.6126 22.9621Z" fill="#F5F6FB"/>
</svg>
