<svg width="29" height="25" viewBox="0 0 29 25" fill="none" xmlns="http://www.w3.org/2000/svg">
<path d="M27.719 4.79122L23.8931 8.6044C23.133 17.4596 15.6587 24.3385 6.7275 24.3385C4.89059 24.3385 3.37038 24.0471 2.21756 23.477C1.29277 23.0083 0.912724 22.5142 0.811377 22.3622C0.727525 22.2349 0.673493 22.0902 0.653306 21.9391C0.633119 21.7879 0.647298 21.6342 0.694787 21.4893C0.742276 21.3444 0.82185 21.2121 0.927581 21.1022C1.03331 20.9923 1.16247 20.9077 1.30544 20.8547C1.33078 20.842 4.32051 19.7019 6.25877 17.5102C5.05672 16.6544 4.00019 15.6107 3.12969 14.4192C1.39412 12.0629 -0.44279 7.97098 0.659357 1.86483C0.694004 1.6833 0.777032 1.5145 0.899673 1.37625C1.02231 1.238 1.18001 1.13544 1.35612 1.0794C1.53278 1.02155 1.72195 1.01341 1.90294 1.05586C2.08392 1.09831 2.24974 1.18972 2.38225 1.3201C2.42026 1.37077 6.63882 5.52599 11.7948 6.86883V6.09606C11.7998 5.29253 11.963 4.49784 12.2751 3.75737C12.5872 3.0169 13.0421 2.34516 13.6138 1.78051C14.1856 1.21585 14.8629 0.769329 15.6072 0.466447C16.3515 0.163564 17.1481 0.0102491 17.9517 0.0152555C19.0063 0.0302969 20.039 0.31826 20.9493 0.851088C21.8595 1.38392 22.6162 2.14344 23.1457 3.05566H26.9969C27.1969 3.05503 27.3927 3.11365 27.5596 3.22411C27.7264 3.33458 27.8568 3.49196 27.9343 3.67641C28.0073 3.86361 28.0259 4.06765 27.9877 4.26494C27.9496 4.46223 27.8564 4.64469 27.719 4.79122Z" fill="#D1E5FF"/>
</svg>
