<svg width="37" height="37" viewBox="0 0 37 37" fill="none" xmlns="http://www.w3.org/2000/svg">
<rect x="0.784088" y="0.280762" width="35.88" height="35.88" rx="4" fill="#7961F2"/>
<path d="M16.747 19.2794C15.7927 20.6915 14.4389 21.4444 13.7232 20.9601C13.0074 20.4759 13.2018 18.9401 14.1562 17.528C15.1105 16.1159 16.4643 15.363 17.18 15.8473C17.8958 16.3315 17.7014 17.8673 16.747 19.2794Z" fill="url(#paint0_linear_100_600)"/>
<path d="M16.747 19.2794C15.7927 20.6915 14.4389 21.4444 13.7232 20.9601C13.0074 20.4759 13.2018 18.9401 14.1562 17.528C15.1105 16.1159 16.4643 15.363 17.18 15.8473C17.8958 16.3315 17.7014 17.8673 16.747 19.2794Z" fill="url(#paint1_linear_100_600)"/>
<path d="M28.3283 27.4868C26.4196 27.4868 26.3383 28.9484 24.0638 28.9484C21.7892 28.9484 20.5716 28.0135 18.4596 26.7552C16.6976 25.7054 14.6281 25.9228 13.5411 25.7036L15.001 26.2815C15.001 26.2815 15.8705 28.215 18.1627 29.3673C21.4853 31.0391 25.4211 29.1145 27.1319 29.2312C29.2615 29.3779 31.8965 29.8427 32.3861 29.8055C32.144 29.6129 31.9425 27.4868 28.3283 27.4868Z" fill="url(#paint2_linear_100_600)"/>
<path d="M28.3283 27.4868C26.4196 27.4868 26.3383 28.9484 24.0638 28.9484C21.7892 28.9484 20.5716 28.0135 18.4596 26.7552C16.6976 25.7054 14.6281 25.9228 13.5411 25.7036L15.001 26.9301C15.001 26.9301 15.8705 28.2132 18.1627 29.3673C21.4853 31.0391 25.4211 29.1145 27.1319 29.2312C29.2615 29.3779 31.8965 29.8427 32.3861 29.8055C32.144 29.6129 31.9425 27.4868 28.3283 27.4868Z" fill="url(#paint3_linear_100_600)"/>
<path d="M28.3283 27.4867C26.4196 27.4867 26.3383 28.9482 24.0638 28.9482C21.7892 28.9482 20.5716 28.0133 18.4596 26.755C16.6976 25.7052 14.6281 25.9226 13.5411 26.3538L15.001 26.9317C15.001 26.9317 15.5205 27.6899 16.7983 28.5629C16.9521 28.4481 17.0263 28.874 16.9875 28.5029C16.6517 25.281 20.006 29.3459 23.0105 29.2646C26.3843 29.178 28.3283 27.4867 28.3283 27.4867Z" fill="url(#paint4_linear_100_600)"/>
<path d="M8.85237 22.98L5.31066 28.0928C5.00316 28.5364 4.08239 30.8357 3.50447 32.3114C3.36662 32.6649 3.74306 32.9247 4.02407 32.6702C5.18343 31.6293 6.98612 30.0016 7.41731 29.5509L11.18 24.1217C10.1054 24.1005 9.19346 23.823 8.85237 22.98Z" fill="url(#paint5_linear_100_600)"/>
<path d="M3.5363 32.6475C3.63704 32.7871 3.84913 32.8277 4.02409 32.6704C5.18346 31.6295 6.98613 30.0018 7.41736 29.5511L11.18 24.1219C10.8495 24.1149 10.5402 24.0795 10.2521 24.0159L6.98967 28.717C6.77049 28.9343 5.4397 30.8024 3.5363 32.6475Z" fill="url(#paint6_linear_100_600)"/>
<path d="M9.16875 23.5031C8.9231 23.3334 8.97257 23.2787 8.85238 22.98L5.31071 28.0928C5.00318 28.5364 4.0824 30.8357 3.50448 32.3114C3.36663 32.6649 5.49625 28.8016 5.76665 28.4092L9.16875 23.5031Z" fill="url(#paint7_linear_100_600)"/>
<path d="M13.5323 28.5028C14.9408 30.074 16.185 30.4787 17.3497 30.4787C18.5143 30.4787 18.7582 29.9096 18.5143 29.4908C18.2704 29.0719 17.5671 28.2324 16.4572 28.0699C15.3473 27.9073 14.4 25.3888 14.4 25.3888L13.0198 25.3623L11.7208 26.9865L13.5323 28.5028Z" fill="url(#paint8_linear_100_600)"/>
<path d="M13.5323 28.5028C14.9408 30.074 16.185 30.4787 17.3497 30.4787C18.5143 30.4787 18.7582 29.9096 18.5143 29.4908C18.2704 29.0719 17.5671 28.2324 16.4572 28.0699C15.3473 27.9073 14.4 25.3888 14.4 25.3888L13.0198 25.3623L11.7208 26.9865L13.5323 28.5028Z" fill="url(#paint9_linear_100_600)"/>
<path d="M14.142 28.897C13.6595 27.9903 14.3753 27.2993 15.3456 27.188C14.7818 26.405 14.3983 25.3888 14.3983 25.3888L13.018 25.3623L12.3093 26.2477L12.2209 26.5005C12.2209 26.5005 14.697 29.9397 14.142 28.897Z" fill="url(#paint10_linear_100_600)"/>
<path d="M14.3983 25.3889C14.6616 25.9333 14.9249 26.4758 15.2696 26.9689C15.6107 27.4408 16.0048 27.9657 16.6039 28.0152C17.2154 28.1389 17.7686 28.4853 18.1768 28.943C18.3642 29.1816 18.5939 29.4096 18.6363 29.7436C18.6558 30.0935 18.3377 30.3162 18.0566 30.3852C18.3359 30.2915 18.6045 30.0458 18.5568 29.7507C18.5108 29.475 18.2758 29.2435 18.0849 29.0296C17.6731 28.6072 17.15 28.2803 16.5721 28.1742C16.2699 28.1442 15.9535 27.9728 15.7397 27.7571C15.5152 27.5415 15.3261 27.2976 15.1653 27.0361C15.0045 26.7763 14.8613 26.5077 14.7323 26.2337C14.6104 25.9562 14.5096 25.6682 14.3983 25.3889Z" fill="#804B24"/>
<path d="M11.1216 28.7468C11.5281 30.1553 13.207 31.1556 14.3699 31.0478C15.0981 30.9806 15.2907 29.8567 14.4247 28.9907C13.5587 28.1247 13.0144 26.6295 13.0144 26.6295L12.2315 24.1995L11.0138 27.3135L10.2291 28.9924L11.1216 28.7468Z" fill="url(#paint11_linear_100_600)"/>
<path d="M11.1216 28.7468C11.5281 30.1553 13.207 31.1556 14.3699 31.0478C15.0981 30.9806 15.2907 29.8567 14.4247 28.9907C13.5587 28.1247 13.0144 26.6295 13.0144 26.6295L12.2315 24.1995L11.0138 27.3135L10.2291 28.9924L11.1216 28.7468Z" fill="url(#paint12_linear_100_600)"/>
<path d="M13.663 27.9674C13.2548 27.2763 13.0144 26.6277 13.0144 26.6277L12.6168 25.3923L11.7349 25.4684L11.0138 27.3116L10.602 28.1918L10.876 28.8139L11.1217 28.7467C11.3072 29.3882 11.7614 29.9379 12.304 30.3426C11.7331 29.3034 12.6274 28.1123 13.663 27.9674Z" fill="url(#paint13_linear_100_600)"/>
<path d="M14.9956 30.3181C14.9868 29.8462 14.7464 29.4255 14.4336 29.1021C14.0943 28.7716 13.8327 28.3652 13.6047 27.9569C13.1488 27.1351 12.7759 26.2726 12.4754 25.3872C12.8784 26.2302 13.2796 27.0733 13.7391 27.8791C13.9794 28.275 14.2074 28.678 14.5361 29.0049C14.8595 29.3602 15.0663 29.8479 14.9956 30.3181Z" fill="#804B24"/>
<path d="M8.2056 28.3633C8.2056 29.6216 9.79441 31.0478 10.7434 31.0478C11.6925 31.0478 11.719 29.7754 11.5564 29.2876C11.3938 28.7998 11.1552 27.727 11.1552 27.727L10.3388 27.2021L8.2056 28.3633Z" fill="url(#paint14_linear_100_600)"/>
<path d="M8.2056 28.3633C8.2056 29.6216 9.79441 31.0478 10.7434 31.0478C11.6925 31.0478 11.719 29.7754 11.5564 29.2876C11.3938 28.7998 11.1552 27.727 11.1552 27.727L10.3388 27.2021L8.2056 28.3633Z" fill="url(#paint15_linear_100_600)"/>
<path d="M11.3161 28.4163C11.2259 28.0469 11.1535 27.727 11.1535 27.727L10.337 27.2021L8.2056 28.3633C8.2056 29.1338 8.80116 29.9645 9.48158 30.4947C9.2907 29.4272 10.5968 28.7185 11.3161 28.4163Z" fill="url(#paint16_linear_100_600)"/>
<path d="M11.5051 30.523C11.5917 30.2085 11.5846 29.8868 11.544 29.5775C11.4927 29.2823 11.3584 28.9625 11.3001 28.6479C11.1445 28.0187 11.0191 27.3825 10.9219 26.741C11.1163 27.3595 11.2842 27.9852 11.4468 28.6108C11.5192 28.9307 11.6394 29.2134 11.6854 29.5598C11.7154 29.8921 11.6659 30.2367 11.5051 30.523Z" fill="#804B24"/>
<path d="M6.54606 26.4456C6.57961 27.8736 7.89982 28.4621 8.95491 28.4621C10.01 28.4621 12.2421 27.1967 13.0127 26.6277C13.785 26.0586 16.3458 25.4966 18.4578 26.7549C20.5697 28.0132 21.7874 28.9482 24.062 28.9482C26.3365 28.9482 26.4178 27.4866 28.3265 27.4866C32.3471 27.4866 32.1439 30.127 32.4691 29.8018C32.7943 29.4766 33.9713 26.7567 33.9713 24.1569C33.9713 22.4374 33.5613 21.5254 33.2856 20.6683C33.1636 20.2901 32.7925 20.0674 32.3984 20.1151C29.5707 20.4562 25.3822 16.9817 22.5191 15.5872C19.4334 14.085 16.9149 12.5015 15.0468 12.5015C13.1788 12.5015 7.1275 15.8718 6.35518 16.6441C5.58286 17.4164 5.25944 18.3089 5.25944 19.4064C5.25944 20.5039 4.56842 23.1019 4.56842 25.3358C4.56842 27.1225 5.01025 27.7906 5.64296 27.407C5.802 27.3099 5.97342 27.1473 6.15192 26.9193C6.20848 26.8539 6.54781 26.5517 6.54606 26.4456C6.54606 25.592 7.20881 24.491 8.35401 23.5031C8.51839 23.3617 8.65271 22.964 8.76582 22.6547C8.76582 22.6547 9.09099 21.1119 9.41619 20.4067C9.74136 19.7033 10.2291 19.2703 10.9873 19.1077C13.147 18.6447 14.7782 15.8311 15.8616 16.4815C16.945 17.1319 15.8068 19.6256 13.6401 20.3837C11.4733 21.1419 10.337 22.0044 8.87539 23.0877C7.41382 24.1711 6.54606 25.4701 6.54606 26.4456Z" fill="url(#paint17_linear_100_600)"/>
<path d="M32.3985 20.1152C29.5707 20.4563 25.3822 16.9817 22.5192 15.5873C20.204 14.4598 18.2086 13.288 16.5686 12.772L15.8599 16.4816C16.079 16.6123 16.1974 16.7908 16.2346 16.9959C16.2664 17.1125 16.2734 17.2415 16.2681 17.3776C16.2681 17.3917 16.2664 17.4059 16.2664 17.42C16.2575 17.5579 16.231 17.7028 16.1868 17.853C18.5851 15.2391 20.0943 15.0112 21.4799 15.5767C23.8411 16.5399 26.4761 20.4916 29.6839 20.4916C32.8774 20.4916 33.7222 22.3791 33.7292 22.3915C33.5932 21.6899 33.4235 21.0943 33.2874 20.6701C33.2256 20.481 33.1036 20.3308 32.9463 20.2336C32.7926 20.1399 32.6053 20.0975 32.4126 20.117C32.4073 20.117 32.4038 20.1152 32.3985 20.1152Z" fill="url(#paint18_radial_100_600)"/>
<path d="M22.5209 15.5873C20.773 14.7372 19.2089 13.8607 17.8392 13.2598L16.3635 16.5399C16.8938 16.0839 17.9789 15.7835 20.2057 16.3596C24.7548 17.5367 27.3121 23.8319 29.6273 23.7382C31.7145 23.6534 31.6314 22.2218 33.8265 22.9518C33.6815 22.0062 33.4588 21.2021 33.2874 20.6684C33.2273 20.4793 33.1036 20.329 32.9463 20.2318C32.789 20.1346 32.5982 20.0922 32.4002 20.1152C29.5707 20.4563 25.3822 16.9817 22.5209 15.5873Z" fill="url(#paint19_linear_100_600)"/>
<path d="M15.8598 16.4816C16.9432 17.132 15.805 19.6257 13.6383 20.3839C12.0035 20.9565 10.9537 21.5892 9.90923 22.3297C11.3125 21.492 12.9119 21.3825 14.1278 20.7886C17.0368 19.3695 17.0651 16.1724 17.0651 16.1724L15.8598 16.4816Z" fill="url(#paint20_linear_100_600)"/>
<path d="M15.0468 12.5015C13.1788 12.5015 7.1275 15.8718 6.35518 16.6441C5.58286 17.4164 5.25944 18.3089 5.25944 19.4064C5.25944 20.5039 4.56842 23.1019 4.56842 25.3358C4.56842 25.6044 4.57903 25.8447 4.59847 26.0639C5.05797 23.7169 5.47859 18.0862 6.75282 16.9993C8.32221 15.6597 13.7656 12.4909 16.1603 12.8567C16.3971 12.8921 16.5791 12.8744 16.7364 12.8302C16.1267 12.6234 15.5611 12.5015 15.0468 12.5015Z" fill="url(#paint21_linear_100_600)"/>
<path d="M33.2874 20.6686C33.1655 20.2904 32.7943 20.0677 32.4002 20.1154C29.9896 20.4053 26.5928 17.749 23.8694 16.2856C23.8605 17.9999 24.0125 19.7531 23.7545 21.3031C22.6234 24.9791 19.8929 25.9476 16.5791 26.0837C17.2083 26.1879 17.8516 26.3947 18.4596 26.757C20.5716 28.0154 21.7892 28.9503 24.0638 28.9503C26.3383 28.9503 26.4196 27.4887 28.3283 27.4887C32.3489 27.4887 32.1457 30.129 32.4709 29.8039C32.7961 29.4787 33.9731 26.7587 33.9731 24.1591C33.9731 22.4377 33.5631 21.5257 33.2874 20.6686Z" fill="url(#paint22_radial_100_600)"/>
<path d="M16.1497 16.7645C16.1745 16.8051 16.1903 16.8493 16.2045 16.8935L16.3635 16.54C16.2805 16.6125 16.208 16.6867 16.1497 16.7645Z" fill="url(#paint23_linear_100_600)"/>
<path d="M8.76582 22.6548C8.76582 22.6548 9.09098 21.1119 9.41619 20.4067C9.74135 19.7033 10.2291 19.2704 10.9873 19.1078C11.3567 19.0282 11.7084 18.878 12.046 18.6907C13.557 17.1831 15.4639 13.6662 14.8719 14.2971C11.111 18.2983 11.1252 17.4041 9.54164 18.9876C7.95812 20.5711 8.42469 22.3384 7.59232 23.1708C6.86773 23.8954 5.48033 25.6221 5.64471 27.4035C5.80379 27.3081 5.97521 27.1473 6.15546 26.9193C6.21027 26.8539 6.55135 26.5535 6.54781 26.4457C6.54781 26.4457 6.48596 25.9013 6.98613 25.0848C6.98967 25.0796 6.99496 25.0742 6.99851 25.0689C7.30779 24.5493 7.76728 24.0121 8.3558 23.5049C8.41056 23.4288 8.46362 23.3476 8.51838 23.268C8.61028 23.086 8.69334 22.8545 8.76582 22.6548Z" fill="url(#paint24_linear_100_600)"/>
<path d="M32.4709 29.8019C32.5964 29.6764 32.8491 29.1904 33.1124 28.4958C30.5144 25.228 27.3827 26.0728 26.4461 26.8787C25.4705 27.7182 23.8198 28.692 21.7892 27.8543C19.7585 27.0148 19.0551 24.1995 16.2663 24.1995C13.4775 24.1995 11.4734 25.9456 10.1744 26.5959C9.03796 27.165 7.91927 27.1279 6.58314 25.9844L6.54605 26.4475C6.58139 27.9568 7.98287 28.464 8.9549 28.464C10.01 28.464 12.2421 27.1986 13.0127 26.6295C13.785 26.0604 16.3458 25.4984 18.4578 26.7568C20.5697 28.0151 21.7874 28.95 24.0619 28.95C26.3365 28.95 26.4178 27.4884 28.3265 27.4884C32.3489 27.4867 32.1457 30.1271 32.4709 29.8019Z" fill="url(#paint25_radial_100_600)"/>
<path d="M32.4709 29.8019C32.5787 29.6941 32.7802 29.3123 33.0011 28.7698C32.7218 28.2555 32.2022 27.8278 31.3486 27.5557C26.7589 26.0941 26.7589 28.5312 23.3073 28.6302C19.8557 28.7309 18.7582 25.0779 16.8089 25.0779C12.509 25.0779 10.3316 28.2378 7.31483 27.948C7.80437 28.3085 8.43707 28.4588 8.95491 28.4588C10.01 28.4588 12.2421 27.1934 13.0127 26.6243C13.785 26.0552 16.3458 25.4932 18.4578 26.7515C20.5697 28.0099 21.7874 28.9448 24.062 28.9448C26.3365 28.9448 26.4178 27.4832 28.3265 27.4832C32.3489 27.4867 32.1457 30.1271 32.4709 29.8019Z" fill="url(#paint26_linear_100_600)"/>
<path d="M8.354 23.5032C8.35225 23.505 8.35046 23.5067 8.34871 23.5067C8.35221 23.505 8.35225 23.505 8.354 23.5032Z" fill="url(#paint27_linear_100_600)"/>
<path d="M17.2401 19.0901C18.2563 18.901 18.7777 18.4539 19.6012 18.3019C20.4248 18.1499 24.1344 17.8 24.449 19.5815C24.7636 21.3629 22.1692 22.3809 20.651 23.1338C19.1329 23.8867 15.2342 23.4978 14.7358 22.084C14.2374 20.6701 15.6424 19.387 17.2401 19.0901Z" fill="url(#paint28_radial_100_600)"/>
<path d="M10.5596 18.1624C10.063 18.712 9.25536 18.6254 8.85418 19.069C8.453 19.5126 7.08332 23.8709 6.12896 22.9801C5.17462 22.0894 6.07595 18.986 6.61145 17.8955C7.14696 16.8051 11.7155 13.882 12.615 14.4793C13.5128 15.0767 11.339 17.2999 10.5596 18.1624Z" fill="url(#paint29_radial_100_600)"/>
<path d="M24.3836 4.56092C24.251 4.33471 24.0249 4.02366 23.6944 3.7939C23.3657 3.56592 23.0033 3.46872 22.7488 3.4263C22.5598 3.39449 22.3583 3.48816 22.2363 3.66489L8.85063 22.9799C8.86301 23.0118 8.88243 23.0365 8.89656 23.0665C8.98141 23.0029 9.05918 22.934 9.1405 22.8686L9.09628 22.9216C10.4536 21.916 11.5847 21.1013 13.6383 20.382C13.7037 20.359 13.7638 20.3254 13.8274 20.3007L14.6439 19.1219L24.3412 5.12823C24.4667 4.95148 24.4826 4.72705 24.3836 4.56092Z" fill="url(#paint30_linear_100_600)"/>
<path d="M10.3811 21.7517L22.4307 4.34177C22.7665 3.78684 22.9132 3.45281 22.7506 3.4263C22.5615 3.39449 22.36 3.48816 22.2381 3.66489L8.85239 22.9799C8.86831 23.0188 8.87535 23.0453 8.88773 23.0772C9.42324 22.6795 9.89336 22.2164 10.3811 21.7517Z" fill="url(#paint31_radial_100_600)"/>
<path d="M24.343 5.1283C24.3571 5.10708 24.366 5.08232 24.3783 5.05936C24.4154 4.98868 24.4419 4.91445 24.4473 4.84022C24.4543 4.74125 24.4331 4.64405 24.3836 4.56098C24.3819 4.55744 24.3801 4.55391 24.3783 4.55214C24.3041 4.4249 24.198 4.27467 24.0638 4.12622L12.4507 20.8592C12.8147 20.6966 13.2036 20.5375 13.6401 20.3856C13.7055 20.3626 13.7656 20.329 13.8292 20.3043L14.6457 19.1255L24.343 5.1283Z" fill="url(#paint32_linear_100_600)"/>
<path d="M28.3283 27.4868C27.7292 27.4868 27.1442 27.6812 26.6581 28.0259C26.1722 28.3599 25.6738 28.7222 25.0817 28.8671C23.9029 29.1287 22.6622 28.9608 21.5453 28.5295C20.4283 28.0806 19.4351 27.4002 18.4083 26.8047C17.3921 26.2055 16.1744 25.997 15.0062 26.1066C14.423 26.1596 13.8345 26.2833 13.3114 26.5378C12.8236 26.8347 12.3146 27.1952 11.7897 27.4674C11.2648 27.7537 10.7258 28.017 10.1655 28.2309C9.61411 28.4465 8.9885 28.602 8.38939 28.4589C7.79908 28.344 7.2141 28.0541 6.85534 27.5505C6.49834 27.0521 6.40823 26.377 6.61324 25.8061C7.02147 24.6556 7.92986 23.7914 8.87539 23.0862C7.94578 23.8108 7.06035 24.6998 6.68922 25.8291C6.49834 26.3858 6.59024 27.022 6.93132 27.4939C7.2742 27.9693 7.83796 28.245 8.40881 28.351C8.99025 28.4836 9.57173 28.3334 10.1214 28.116C10.6728 27.9022 11.2047 27.6353 11.7243 27.3472C12.2545 27.0662 12.7193 26.7269 13.2442 26.4035C13.7938 26.1331 14.3912 26.0005 14.9921 25.944C16.1903 25.8397 17.4363 26.0624 18.4772 26.6862C19.5041 27.2924 20.4884 27.9764 21.586 28.4271C22.6782 28.8618 23.91 29.0315 25.0623 28.7876C25.6437 28.6586 26.1404 28.3157 26.6387 27.9887C27.1336 27.6565 27.7292 27.4727 28.3283 27.4868Z" fill="#804B24"/>
<path d="M16.1549 16.9445C16.2027 17.0859 16.2274 17.2344 16.2203 17.3846C16.1249 18.2983 15.5063 19.0918 14.7976 19.6503C14.096 20.2582 13.1416 20.435 12.3022 20.8591C11.4486 21.2497 10.6533 21.7569 9.91101 22.3278C10.6886 21.8099 11.498 21.3398 12.3464 20.9581C12.7723 20.769 13.207 20.6011 13.6471 20.4509C14.096 20.2971 14.5219 20.0709 14.8966 19.7775C15.6212 19.182 16.2415 18.3619 16.3264 17.3899C16.3334 17.2026 16.3069 17.0099 16.2292 16.835L16.1549 16.9445Z" fill="#804B24"/>
<defs>
<linearGradient id="paint0_linear_100_600" x1="17.2639" y1="20.3053" x2="7.78395" y2="10.3808" gradientUnits="userSpaceOnUse">
<stop offset="0.00132565" stop-color="#FFCB4B"/>
<stop offset="1" stop-color="#FFD748"/>
</linearGradient>
<linearGradient id="paint1_linear_100_600" x1="14.6795" y1="29.8233" x2="15.837" y2="12.7051" gradientUnits="userSpaceOnUse">
<stop stop-color="#FFBC47" stop-opacity="0"/>
<stop offset="1" stop-color="#C86F34"/>
</linearGradient>
<linearGradient id="paint2_linear_100_600" x1="23.0474" y1="29.8145" x2="23.1542" y2="32.3772" gradientUnits="userSpaceOnUse">
<stop offset="0.00132565" stop-color="#FFCB4B"/>
<stop offset="1" stop-color="#FFD748"/>
</linearGradient>
<linearGradient id="paint3_linear_100_600" x1="24.3271" y1="36.1146" x2="22.5368" y2="25.1569" gradientUnits="userSpaceOnUse">
<stop stop-color="#FFBC47" stop-opacity="0"/>
<stop offset="1" stop-color="#C86F34"/>
</linearGradient>
<linearGradient id="paint4_linear_100_600" x1="21.5485" y1="36.1735" x2="20.8969" y2="26.3623" gradientUnits="userSpaceOnUse">
<stop stop-color="#FFBC47" stop-opacity="0"/>
<stop offset="1" stop-color="#C86F34"/>
</linearGradient>
<linearGradient id="paint5_linear_100_600" x1="2.11005" y1="23.659" x2="7.51643" y2="28.5305" gradientUnits="userSpaceOnUse">
<stop offset="0.00132565" stop-color="#0097D4"/>
<stop offset="0.2368" stop-color="#0294D6"/>
<stop offset="0.4442" stop-color="#0989DB"/>
<stop offset="0.6411" stop-color="#1477E4"/>
<stop offset="0.8304" stop-color="#245EF0"/>
<stop offset="1" stop-color="#3640FF"/>
</linearGradient>
<linearGradient id="paint6_linear_100_600" x1="3.28477" y1="24.3534" x2="7.21128" y2="28.2406" gradientUnits="userSpaceOnUse">
<stop offset="0.00132565" stop-color="#0097D4"/>
<stop offset="0.2368" stop-color="#0294D6"/>
<stop offset="0.4442" stop-color="#0989DB"/>
<stop offset="0.6411" stop-color="#1477E4"/>
<stop offset="0.8304" stop-color="#245EF0"/>
<stop offset="1" stop-color="#3640FF"/>
</linearGradient>
<linearGradient id="paint7_linear_100_600" x1="4.87293" y1="26.7836" x2="7.38515" y2="28.4644" gradientUnits="userSpaceOnUse">
<stop stop-color="#0097D4" stop-opacity="0"/>
<stop offset="0.3342" stop-color="#029AD7" stop-opacity="0.3342"/>
<stop offset="0.6287" stop-color="#08A3E2" stop-opacity="0.6287"/>
<stop offset="0.9072" stop-color="#13B2F4" stop-opacity="0.9072"/>
<stop offset="1" stop-color="#17B9FC"/>
</linearGradient>
<linearGradient id="paint8_linear_100_600" x1="15.2494" y1="30.5759" x2="15.3577" y2="33.1751" gradientUnits="userSpaceOnUse">
<stop offset="0.00132565" stop-color="#FFCB4B"/>
<stop offset="1" stop-color="#FFD748"/>
</linearGradient>
<linearGradient id="paint9_linear_100_600" x1="15.4695" y1="38.9715" x2="15.0363" y2="24.2426" gradientUnits="userSpaceOnUse">
<stop stop-color="#FFBC47" stop-opacity="0"/>
<stop offset="1" stop-color="#C86F34"/>
</linearGradient>
<linearGradient id="paint10_linear_100_600" x1="14.5452" y1="31.5087" x2="13.8548" y2="27.285" gradientUnits="userSpaceOnUse">
<stop stop-color="#FFBC47" stop-opacity="0"/>
<stop offset="1" stop-color="#C86F34"/>
</linearGradient>
<linearGradient id="paint11_linear_100_600" x1="12.6591" y1="30.6839" x2="12.7674" y2="33.2831" gradientUnits="userSpaceOnUse">
<stop offset="0.00132565" stop-color="#FFCB4B"/>
<stop offset="1" stop-color="#FFD748"/>
</linearGradient>
<linearGradient id="paint12_linear_100_600" x1="13.8602" y1="36.0674" x2="11.5317" y2="23.8837" gradientUnits="userSpaceOnUse">
<stop stop-color="#FFBC47" stop-opacity="0"/>
<stop offset="1" stop-color="#C86F34"/>
</linearGradient>
<linearGradient id="paint13_linear_100_600" x1="12.3331" y1="31.3775" x2="12.1301" y2="28.0473" gradientUnits="userSpaceOnUse">
<stop stop-color="#FFBC47" stop-opacity="0"/>
<stop offset="1" stop-color="#C86F34"/>
</linearGradient>
<linearGradient id="paint14_linear_100_600" x1="9.98924" y1="30.7951" x2="10.0975" y2="33.3943" gradientUnits="userSpaceOnUse">
<stop offset="0.00132565" stop-color="#FFCB4B"/>
<stop offset="1" stop-color="#FFD748"/>
</linearGradient>
<linearGradient id="paint15_linear_100_600" x1="10.9437" y1="33.3898" x2="8.50694" y2="23.1284" gradientUnits="userSpaceOnUse">
<stop stop-color="#FFBC47" stop-opacity="0"/>
<stop offset="1" stop-color="#C86F34"/>
</linearGradient>
<linearGradient id="paint16_linear_100_600" x1="10.1099" y1="34.2911" x2="9.7579" y2="28.3617" gradientUnits="userSpaceOnUse">
<stop stop-color="#FFBC47" stop-opacity="0"/>
<stop offset="1" stop-color="#C86F34"/>
</linearGradient>
<linearGradient id="paint17_linear_100_600" x1="35.1651" y1="35.3098" x2="5.59914" y2="14.2996" gradientUnits="userSpaceOnUse">
<stop offset="0.00132565" stop-color="#FFCB4B"/>
<stop offset="1" stop-color="#FFD748"/>
</linearGradient>
<radialGradient id="paint18_radial_100_600" cx="0" cy="0" r="1" gradientUnits="userSpaceOnUse" gradientTransform="translate(32.1992 4.61269) scale(45.5003 45.5003)">
<stop stop-color="#FFBC47" stop-opacity="0"/>
<stop offset="1" stop-color="#FF8900"/>
</radialGradient>
<linearGradient id="paint19_linear_100_600" x1="18.211" y1="15.8595" x2="29.1494" y2="21.0579" gradientUnits="userSpaceOnUse">
<stop stop-color="#FFBB47" stop-opacity="0.9686"/>
<stop offset="0.0026513" stop-color="#FFBA47"/>
<stop offset="1" stop-color="#FFD748" stop-opacity="0"/>
</linearGradient>
<linearGradient id="paint20_linear_100_600" x1="13.4016" y1="18.184" x2="13.9702" y2="25.1694" gradientUnits="userSpaceOnUse">
<stop stop-color="#FFBB47" stop-opacity="0.9686"/>
<stop offset="0.0026513" stop-color="#FFBA47"/>
<stop offset="1" stop-color="#FFD748" stop-opacity="0"/>
</linearGradient>
<linearGradient id="paint21_linear_100_600" x1="11.9163" y1="20.9567" x2="4.97151" y2="12.5499" gradientUnits="userSpaceOnUse">
<stop stop-color="#FFBB47" stop-opacity="0.9686"/>
<stop offset="0.0026513" stop-color="#FFBA47"/>
<stop offset="1" stop-color="#FFD748" stop-opacity="0"/>
</linearGradient>
<radialGradient id="paint22_radial_100_600" cx="0" cy="0" r="1" gradientUnits="userSpaceOnUse" gradientTransform="translate(27.3918 23.2171) rotate(-72.5489) scale(14.0525 9.98998)">
<stop stop-color="#FFBB47" stop-opacity="0.9686"/>
<stop offset="0.0026513" stop-color="#FFBA47"/>
<stop offset="1" stop-color="#FFD748" stop-opacity="0"/>
</radialGradient>
<linearGradient id="paint23_linear_100_600" x1="23.4371" y1="24.5159" x2="17.5889" y2="18.1399" gradientUnits="userSpaceOnUse">
<stop stop-color="#FFBB47" stop-opacity="0.9686"/>
<stop offset="0.0026513" stop-color="#FFBA47"/>
<stop offset="1" stop-color="#FFD748" stop-opacity="0"/>
</linearGradient>
<linearGradient id="paint24_linear_100_600" x1="6.83122" y1="1.7234" x2="12.6253" y2="33.5096" gradientUnits="userSpaceOnUse">
<stop offset="0.3118" stop-color="#FFBC47" stop-opacity="0"/>
<stop offset="1" stop-color="#FF8900"/>
</linearGradient>
<radialGradient id="paint25_radial_100_600" cx="0" cy="0" r="1" gradientUnits="userSpaceOnUse" gradientTransform="translate(22.5251 12.5844) scale(49.9965 49.9965)">
<stop stop-color="#FFBC47" stop-opacity="0"/>
<stop offset="1" stop-color="#FF8900"/>
</radialGradient>
<linearGradient id="paint26_linear_100_600" x1="25.5332" y1="13.7763" x2="17.7356" y2="34.9355" gradientUnits="userSpaceOnUse">
<stop offset="0.3118" stop-color="#FFBC47" stop-opacity="0"/>
<stop offset="1" stop-color="#FF8900"/>
</linearGradient>
<linearGradient id="paint27_linear_100_600" x1="8.35319" y1="23.5054" x2="8.35189" y2="23.5044" gradientUnits="userSpaceOnUse">
<stop offset="0.00132565" stop-color="#FFCB4B"/>
<stop offset="1" stop-color="#FFD748"/>
</linearGradient>
<radialGradient id="paint28_radial_100_600" cx="0" cy="0" r="1" gradientUnits="userSpaceOnUse" gradientTransform="translate(18.9653 20.3631) rotate(169.5) scale(3.57 1.81355)">
<stop stop-color="#FBE07A"/>
<stop offset="0.2654" stop-color="#FCDF73" stop-opacity="0.7346"/>
<stop offset="0.6548" stop-color="#FDDB5F" stop-opacity="0.3452"/>
<stop offset="1" stop-color="#FFD748" stop-opacity="0"/>
</radialGradient>
<radialGradient id="paint29_radial_100_600" cx="0" cy="0" r="1" gradientUnits="userSpaceOnUse" gradientTransform="translate(8.79197 17.4076) rotate(-47.8592) scale(3.58009 1.83263)">
<stop stop-color="#FBE07A"/>
<stop offset="0.2654" stop-color="#FCDF73" stop-opacity="0.7346"/>
<stop offset="0.6548" stop-color="#FDDB5F" stop-opacity="0.3452"/>
<stop offset="1" stop-color="#FFD748" stop-opacity="0"/>
</radialGradient>
<linearGradient id="paint30_linear_100_600" x1="11.287" y1="10.0806" x2="20.3572" y2="16.1455" gradientUnits="userSpaceOnUse">
<stop offset="0.00132565" stop-color="#0097D4"/>
<stop offset="0.2368" stop-color="#0294D6"/>
<stop offset="0.4442" stop-color="#0989DB"/>
<stop offset="0.6411" stop-color="#1477E4"/>
<stop offset="0.8304" stop-color="#245EF0"/>
<stop offset="1" stop-color="#3640FF"/>
</linearGradient>
<radialGradient id="paint31_radial_100_600" cx="0" cy="0" r="1" gradientUnits="userSpaceOnUse" gradientTransform="translate(18.3217 9.73029) rotate(-55.4788) scale(12.504 0.267821)">
<stop stop-color="white" stop-opacity="0.5"/>
<stop offset="1" stop-color="white" stop-opacity="0"/>
</radialGradient>
<linearGradient id="paint32_linear_100_600" x1="10.4246" y1="7.15336" x2="20.7131" y2="14.1658" gradientUnits="userSpaceOnUse">
<stop offset="0.00132565" stop-color="#0097D4"/>
<stop offset="0.2368" stop-color="#0294D6"/>
<stop offset="0.4442" stop-color="#0989DB"/>
<stop offset="0.6411" stop-color="#1477E4"/>
<stop offset="0.8304" stop-color="#245EF0"/>
<stop offset="1" stop-color="#3640FF"/>
</linearGradient>
</defs>
</svg>
